# xmcd
#
# Track frame offsets: 
#        150
#        32903
#        61628
#        94599
#        113820
#        162970
#
# Disc length: 2469 seconds
#
# Revision: 0
# Processed by: cddbd v1.5.2PL0 Copyright (c) Steve Scherf et al.
# Submitted via: ExactAudioCopy v1.1
#
DISCID=4009a306
DTITLE=Diamanda Galás - All the Way
DYEAR=2017
DGENRE=Vocal
TTITLE0=All the Way
TTITLE1=You Don't Know What Love Is (Live in Paris)
TTITLE2=The Thrill Is Gone (Live in Copenhagen)
TTITLE3=Round Midnight
TTITLE4=O Death (Live in East Sussex)
TTITLE5=Pardon Me I've Got Someone to Kill (Live in Paris)
EXTD=
EXTT0=
EXTT1=
EXTT2=
EXTT3=
EXTT4=
EXTT5=
PLAYORDER=
